<svg xmlns="http://www.w3.org/2000/svg" width="108.041" height="124.544" viewBox="0 0 108.041 124.544">
  <path id="Path_29" data-name="Path 29" d="M-20.811-9.875c.745-.777,1.514-1.5,2.184-2.3.578-.692.978-1.535,1.574-2.208.713-.8.227-1.547-.04-2.248-.087-.227-.752-.316-1.156-.323-1.335-.025-1.82.527-1.613,1.8-.775.39-1.558.8-2.357,1.181-.6.283-.722.658-.365,1.222.554.875,1.089,1.762,1.773,2.874m-53.17,94.093a34.705,34.705,0,0,1-9.115,0c-.64-.118-1.018-.385-1.055-1a13.476,13.476,0,0,1-.075-3.619c.606-2.756,1.457-5.459,2.219-8.179.157-.563.343-1.119.544-1.667a2.361,2.361,0,0,0-.259-2.2,3.36,3.36,0,0,1-.09-3.088,20,20,0,0,1,1.885-3.512,7.458,7.458,0,0,0,.8-3.017,10.224,10.224,0,0,1,1.711-4.2,22.678,22.678,0,0,1,2-3c1.168-1.146,1.581-2.706,2.542-3.954a3.039,3.039,0,0,0,.543-2.2c-.463-2.2.01-4.312.316-6.441.233-1.62.535-3.238.928-4.827a4.242,4.242,0,0,0-.389-3.057c-.548-1.125-.9-2.369.1-3.511.047-.053.045-.148.086-.3-1.429-.539-.774-1.636-.556-2.521a1.774,1.774,0,0,1,2.136-1.368c.127-4.171-1.614-8.124-1.009-12.321l.9.546c-.521-2.01,1.293-1.528,2.159-2.2-1.322-.27-2.541-.567-3.779-.748-.607-.088-.821-.406-.792-.9.063-1.048.188-2.095.3-3.141.289-2.675.6-5.346.864-8.025.05-.528.2-.777.743-.826,1.4-.124,2.794-.294,4.192-.429.689-.066.839-.36.757-1.07a24.6,24.6,0,0,1,.411-9.75,14.436,14.436,0,0,1,4.5-7.287,9.467,9.467,0,0,1,6.708-2.359,9.512,9.512,0,0,1,2.1.673c.264.081.62.2.819.087.35-.193.7-.453.45-1.03a9.18,9.18,0,0,1-.187-6.971,9.973,9.973,0,0,1,7.724-6.588,10.9,10.9,0,0,1,7.858,1.367c.919.5,1.872.945,2.825,1.381.649.3,1.1.655.885,1.471a.9.9,0,0,0,.132.6,8.438,8.438,0,0,1,1.023,5.533c-.213,1.668-.671,2.074-2.335,2.447-1.244.279-1.25.279-1.128,1.509.072.725.165,1.447.271,2.373.91-.121,1.778-.2,2.633-.36,1.114-.2,2.222-.453,3.321-.725a.854.854,0,0,0,.5-.472A21.057,21.057,0,0,1-25.8-27.305c.13.714.261,1.428.4,2.169.587.449,1.842-.094,1.906,1.287H5.916v1.131l1,.116v-4.766l.917-.067c0,.853.039,1.634-.01,2.41-.057.884.018,1.673.94,2.084l.835-.3a8.3,8.3,0,0,1,.3,1.107,3.778,3.778,0,0,1-.1.878c.745.037,1.467.1,2.188.1,1.76,0,3.519-.034,5.278-.056a1.621,1.621,0,0,0,.564-.044c1.937-.783,3.887.285,5.874-.243-.04.7-.069,1.2-.107,1.857-1.13,0-2.227-.023-3.323.008a6.169,6.169,0,0,1-2.358-.253,6.87,6.87,0,0,0-2.244-.166c-1.569,0-3.136.029-4.7.061a4.008,4.008,0,0,0-.878.135A5.566,5.566,0,0,1,6.4-19.988c-.1.093-.161.125-.168.166-.2,1.344-.2,1.344-1.6,1.344-3.2,0-6.391.016-9.586-.008A3.711,3.711,0,0,0-8-17.025a15.271,15.271,0,0,1-2.561,2.3c-.368.275-.545.5-.469.9.228,1.179.478,2.355.729,3.529.158.739.336,1.473.529,2.319-.5.135-.951.279-1.412.377a1.552,1.552,0,0,0-1.289,1.357c-.212,1.116-.4,2.237-.655,3.342A4.018,4.018,0,0,1-15.19-.353,13.832,13.832,0,0,0-17.007.986a5.082,5.082,0,0,1-3.2,1.318V2.78c-.112-.024-.194-.02-.209-.049a1.47,1.47,0,0,0-1.314-.722,23.651,23.651,0,0,1-7.192-2.37c-1.412-.664-2.813-1.353-4.286-2.062L-33.932.442c.308.135.739.324,1.17.511a3.106,3.106,0,0,1,1.874,2.956,47.024,47.024,0,0,1-.349,4.721c-.1,1.321-.249,2.642-.261,3.965a7.367,7.367,0,0,1-1.84,4.461,1.061,1.061,0,0,1-.774.342,6.9,6.9,0,0,1-1.668-.249c-1.2-.342-1.908.325-1.7,1.588a6.723,6.723,0,0,0,1.864,4.171,30.526,30.526,0,0,1,5.131,6.36,36.474,36.474,0,0,1,2.064,4.014c1.038,2.235,2.013,4.5,3.027,6.744a1.064,1.064,0,0,0,.436.536c1.118.47,1.064,1.553,1.427,2.462,1.457,3.647.258,7.281.048,10.917a12.386,12.386,0,0,1-.428,2.036,11.219,11.219,0,0,0,.241,5.178,5.467,5.467,0,0,1-.562,3,6.37,6.37,0,0,0-.609,2.725c.064,1.54-.024,3.1.177,4.616a4.348,4.348,0,0,0,1.108,2.044,26.462,26.462,0,0,0,2.992,3.033,9.746,9.746,0,0,0,2.373,1.288c1.106.492,2.263.867,3.37,1.355.776.343.641,1.125.652,1.78.019,1.2,0,1.311-1.159,1.323q-4.942.052-9.885-.088a9.79,9.79,0,0,1-2.5-.634c-1.525-.474-3.057-.159-4.592-.145a11.875,11.875,0,0,1-2.672-.426c-.752-.171-.8-.688-.6-1.372.331-1.16.521-2.36.859-3.518.245-.837.637-1.631.951-2.448a1.546,1.546,0,0,0,.153-.621c-.127-1.985-.347-3.967-.38-5.951a1.74,1.74,0,0,0-.742-1.648c-.073-.048-.094-.186-.122-.287a62.231,62.231,0,0,1-1.714-11.138,3.481,3.481,0,0,1,.871-2.611,2.281,2.281,0,0,0,.462-1.006c.138-.826.19-1.666.279-2.5a4.855,4.855,0,0,0-1.387-2.489c-.136-.042-.31.05-.468.051a22.51,22.51,0,0,1-2.333-.016c-1.136-.109-1.736-1.03-2.356-1.82-1.243-1.583-2.4-3.232-3.614-4.838q-1.185-1.567-2.44-3.082a.817.817,0,0,0-.624-.257c-2.035.273-3.043-.939-3.786-2.56-.08-.171-.172-.337-.263-.5a.485.485,0,0,0-.082-.095c-.209.177-.563.322-.614.539-.414,1.794-1.988,2.746-2.94,4.144a2.258,2.258,0,0,0-.23.429C-56.989,39.617-57.9,41.8-58.741,44a8.824,8.824,0,0,0-.237,1.6,2.906,2.906,0,0,1-1.442,2.2,3.717,3.717,0,0,0-1.49,1.7c-.493,1.232-1.732,1.691-2.4,2.666a16.527,16.527,0,0,0-1.534,3.048c-.114.274.161.705.24,1.067a3.056,3.056,0,0,1-.3,2.162c-.9,1.766-1.7,3.586-2.511,5.4-.476,1.072-.841,2.194-1.334,3.258-.473,1.021-1,2.032-2.252,2.337a.847.847,0,0,0-.492.366,21.923,21.923,0,0,0-1.37,2.715,11.825,11.825,0,0,0-.889,6.714,7.957,7.957,0,0,0,.51,1.42,5.5,5.5,0,0,1,.264,3.569" transform="translate(84.335 40.017)" fill="#435eff" fill-rule="evenodd"/>
</svg>
