<svg xmlns="http://www.w3.org/2000/svg" width="774.127" height="383.706" viewBox="0 0 774.127 383.706">
  <g id="Group_24" data-name="Group 24" transform="translate(-229.418 -211.675)">
    <g id="Group_6" data-name="Group 6" transform="translate(229.418 211.675)">
      <g id="Group_1" data-name="Group 1" transform="translate(0 115.635)">
        <path id="Path_18" data-name="Path 18" d="M229.418,320.75a66.141,66.141,0,0,1,2.569-18.468,46.372,46.372,0,0,1,7.915-15.76,39.266,39.266,0,0,1,13.4-10.963q8.054-4.1,19.162-4.1,11.663,0,19.924,4.168a45.486,45.486,0,0,1,14.369,11.385l-7.358,6.526q-5.7-7.085-12.218-9.441a42.181,42.181,0,0,0-14.441-2.36A31.322,31.322,0,0,0,257.951,285a30.7,30.7,0,0,0-10.276,8.677,36.5,36.5,0,0,0-6.037,12.5,56.383,56.383,0,0,0,0,29.369,37.157,37.157,0,0,0,6.037,12.632,31.077,31.077,0,0,0,10.276,8.818,30.758,30.758,0,0,0,14.785,3.331,39.13,39.13,0,0,0,14.441-2.567q6.525-2.571,12.218-9.65l7.358,6.526a47.27,47.27,0,0,1-14.369,11.52q-8.266,4.306-19.924,4.307-11.109,0-19.162-4.236a40.392,40.392,0,0,1-13.4-11.176,47.007,47.007,0,0,1-7.915-15.9A66.317,66.317,0,0,1,229.418,320.75Z" transform="translate(-229.418 -271.459)" fill="#c6c6c6"/>
        <path id="Path_19" data-name="Path 19" d="M289.069,369.3V272.107h57.9V282.38H299.342v31.239h43.32v10.273h-43.32v35.127h48.042V369.3Z" transform="translate(-173.692 -270.854)" fill="#c6c6c6"/>
        <path id="Path_20" data-name="Path 20" d="M372.069,327.779H349.159V369.3H338.886V272.107h36.237a26.559,26.559,0,0,1,10.76,2.219,28.158,28.158,0,0,1,14.787,14.787,27.631,27.631,0,0,1,.764,19.715,29.493,29.493,0,0,1-3.959,7.706,26.651,26.651,0,0,1-6.037,6.039,28.082,28.082,0,0,1-7.706,3.959l22.63,42.763H394.839ZM349.159,317.5h25.965a16.875,16.875,0,0,0,6.8-1.387,17.565,17.565,0,0,0,9.3-9.3,17.387,17.387,0,0,0,0-13.609,17.889,17.889,0,0,0-3.748-5.553,18.857,18.857,0,0,0-5.555-3.814,16.19,16.19,0,0,0-6.8-1.46H349.159Z" transform="translate(-127.152 -270.854)" fill="#c6c6c6"/>
        <path id="Path_21" data-name="Path 21" d="M393.439,369.3V272.107h57.9V282.38H403.712v31.239h43.32v10.273h-43.32v35.127h48.042V369.3Z" transform="translate(-76.188 -270.854)" fill="#c6c6c6"/>
        <path id="Path_22" data-name="Path 22" d="M443.256,369.3V272.107H481.3a24.755,24.755,0,0,1,10.135,2.083,26.875,26.875,0,0,1,8.261,5.623,25.943,25.943,0,0,1,5.555,8.261,25.572,25.572,0,0,1,2.013,10.133,24.617,24.617,0,0,1-2.362,10.762,27.045,27.045,0,0,1-6.387,8.536,28.594,28.594,0,0,1,10.344,10,27.4,27.4,0,0,1,1.735,24.994,28.721,28.721,0,0,1-5.971,8.745,27.651,27.651,0,0,1-19.714,8.054Zm10.273-86.916v31.379h27.909a15.152,15.152,0,0,0,6.178-1.251,15.662,15.662,0,0,0,8.263-8.261,15.9,15.9,0,0,0,0-12.358,15.672,15.672,0,0,0-8.263-8.257,15.152,15.152,0,0,0-6.178-1.251Zm0,76.639h31.518a16.039,16.039,0,0,0,6.874-1.524,18.675,18.675,0,0,0,5.692-4.1,19.312,19.312,0,0,0,3.816-5.9,17.9,17.9,0,0,0,1.391-6.944,15.938,15.938,0,0,0-1.391-6.665,15.4,15.4,0,0,0-3.816-5.207,18.5,18.5,0,0,0-5.692-3.4,19.011,19.011,0,0,0-6.874-1.251H453.529Z" transform="translate(-29.649 -270.854)" fill="#c6c6c6"/>
        <path id="Path_23" data-name="Path 23" d="M532.069,327.779H509.16V369.3H498.886V272.107h36.239a26.55,26.55,0,0,1,10.758,2.219,28.172,28.172,0,0,1,14.789,14.787,27.658,27.658,0,0,1,.764,19.715,29.608,29.608,0,0,1-3.959,7.706,26.62,26.62,0,0,1-6.038,6.039,28.057,28.057,0,0,1-7.706,3.959L566.365,369.3H554.839ZM509.16,317.5h25.965a16.875,16.875,0,0,0,6.8-1.387,17.582,17.582,0,0,0,9.3-9.3,17.387,17.387,0,0,0,0-13.609,17.861,17.861,0,0,0-3.75-5.553,18.849,18.849,0,0,0-5.553-3.814,16.189,16.189,0,0,0-6.8-1.46H509.16Z" transform="translate(22.321 -270.854)" fill="#c6c6c6"/>
      </g>
      <g id="Group_2" data-name="Group 2" transform="translate(768.226 173.829)">
        <path id="Path_24" data-name="Path 24" d="M626.6,302.776l.209.135.047-1.366C626.783,301.962,626.69,302.356,626.6,302.776Z" transform="translate(-626.597 -301.546)"/>
      </g>
      <g id="Group_3" data-name="Group 3" transform="translate(628.969 132.213)">
        <path id="Path_25" data-name="Path 25" d="M624.45,292.012a40.959,40.959,0,1,0,11.982,28.934A39.515,39.515,0,0,0,624.45,292.012Zm-14.468,43.4a20.471,20.471,0,1,1,5.988-14.468A19.651,19.651,0,0,1,609.982,335.414Z" transform="translate(-554.6 -280.03)" fill="#0d32cc"/>
      </g>
      <g id="Group_4" data-name="Group 4" transform="translate(649.427 152.673)">
        <path id="Path_26" data-name="Path 26" d="M606.089,311.064A20.445,20.445,0,1,1,600.1,296.6,19.731,19.731,0,0,1,606.089,311.064Z" transform="translate(-565.177 -290.608)" fill="#435eff"/>
      </g>
      <path id="Path_27" data-name="Path 27" d="M641.963,267.311l-77.132,37.334-.233.113-20.121,24.185L647.992,295.26l.9-.294Z" transform="translate(64.913 -159.7)" fill="#c6c6c6"/>
      <g id="Group_5" data-name="Group 5" transform="translate(628.505)">
        <path id="Path_28" data-name="Path 28" d="M695.193,359.427l4.789-147.752H685.174l-27.446,87.979c-18.512-42.164-55.142-66.3-100.846-66.3v11.57c41.584,0,74.79,22.377,91.1,61.4q2.536,6.032,4.536,12.379v.068c.485,3.936,5.832,52.162-10,95.364-2.081,3.841-4.373,8.234-6.917,13.35l-28.951,80.947-52.3,25.591,5.07,10.391,56.531-27.651,19.715-55.167c8.609,2.613,20.851-3.679,29.528-8.447,8.909-4.9,23.141-40.193,28.878-66.411.093-.42.186-.814.255-1.23,1.644-7.795,2.5-14.715,2.2-19.669A21.963,21.963,0,0,0,695.193,359.427Z" transform="translate(-554.36 -211.675)" fill="#c6c6c6"/>
      </g>
    </g>
    <line id="Line_1" data-name="Line 1" x1="267.803" y2="0.002" transform="translate(306.836 540.529)" fill="none" stroke="#c6c6c6" stroke-miterlimit="10" stroke-width="5"/>
    <text id="_2019" data-name="2019" transform="translate(615.538 570.381)" fill="#c6c6c6" font-size="102" font-family="Berlin" letter-spacing="0.106em"><tspan x="0" y="0">2019</tspan></text>
  </g>
</svg>
